ISO-10303-21;
HEADER;
/* Generated by software containing ST-Developer
 * from STEP Tools, Inc. (www.steptools.com) 
 */

FILE_DESCRIPTION(
/* description */ (''),
/* implementation_level */ '2;1');

FILE_NAME(
/* name */ 'macropad.step',
/* time_stamp */ '2026-09-19T17:20:03+10:00',
/* author */ (''),
/* organization */ (''),
/* preprocessor_version */ 'ST-DEVELOPER v20.2',
/* originating_system */ 'Autodesk Translation Framework v15.15.0.0',
/* authorisation */ '');

FILE_SCHEMA (('AUTOMOTIVE_DESIGN { 1 0 10303 214 3 1 1 }'));
ENDSEC;

DATA;
#10=MECHANICAL_DESIGN_GEOMETRIC_PRESENTATION_REPRESENTATION('',(#13),#945);
#11=SHAPE_REPRESENTATION_RELATIONSHIP('SRR','None',#952,#12);
#12=ADVANCED_BREP_SHAPE_REPRESENTATION('',(#14),#944);
#13=STYLED_ITEM('',(#961),#14);
#14=MANIFOLD_SOLID_BREP('Body1',#573);
#15=FACE_BOUND('',#84,.T.);
#16=FACE_BOUND('',#85,.T.);
#17=FACE_BOUND('',#86,.T.);
#18=FACE_BOUND('',#87,.T.);
#19=FACE_BOUND('',#93,.T.);
#20=FACE_BOUND('',#94,.T.);
#21=FACE_BOUND('',#95,.T.);
#22=FACE_BOUND('',#96,.T.);
#23=FACE_BOUND('',#97,.T.);
#24=FACE_BOUND('',#105,.T.);
#25=CIRCLE('',#593,2.);
#26=CIRCLE('',#594,2.);
#27=CIRCLE('',#596,2.);
#28=CIRCLE('',#597,2.);
#29=CIRCLE('',#598,1.99999999999999);
#30=CIRCLE('',#599,1.45);
#31=CIRCLE('',#600,1.45);
#32=CIRCLE('',#601,1.45);
#33=CIRCLE('',#602,1.45);
#34=CIRCLE('',#605,2.);
#35=CIRCLE('',#608,1.99999999999999);
#36=CIRCLE('',#610,2.);
#37=CIRCLE('',#611,1.45);
#38=CIRCLE('',#612,1.45);
#39=CIRCLE('',#613,1.45);
#40=CIRCLE('',#614,1.45);
#41=CYLINDRICAL_SURFACE('',#592,2.);
#42=CYLINDRICAL_SURFACE('',#604,2.);
#43=CYLINDRICAL_SURFACE('',#607,1.99999999999999);
#44=CYLINDRICAL_SURFACE('',#615,2.);
#45=CYLINDRICAL_SURFACE('',#617,1.45);
#46=CYLINDRICAL_SURFACE('',#618,1.45);
#47=CYLINDRICAL_SURFACE('',#619,1.45);
#48=CYLINDRICAL_SURFACE('',#620,1.45);
#49=FACE_OUTER_BOUND('',#77,.T.);
#50=FACE_OUTER_BOUND('',#78,.T.);
#51=FACE_OUTER_BOUND('',#79,.T.);
#52=FACE_OUTER_BOUND('',#80,.T.);
#53=FACE_OUTER_BOUND('',#81,.T.);
#54=FACE_OUTER_BOUND('',#82,.T.);
#55=FACE_OUTER_BOUND('',#83,.T.);
#56=FACE_OUTER_BOUND('',#88,.T.);
#57=FACE_OUTER_BOUND('',#89,.T.);
#58=FACE_OUTER_BOUND('',#90,.T.);
#59=FACE_OUTER_BOUND('',#91,.T.);
#60=FACE_OUTER_BOUND('',#92,.T.);
#61=FACE_OUTER_BOUND('',#98,.T.);
#62=FACE_OUTER_BOUND('',#99,.T.);
#63=FACE_OUTER_BOUND('',#100,.T.);
#64=FACE_OUTER_BOUND('',#101,.T.);
#65=FACE_OUTER_BOUND('',#102,.T.);
#66=FACE_OUTER_BOUND('',#103,.T.);
#67=FACE_OUTER_BOUND('',#104,.T.);
#68=FACE_OUTER_BOUND('',#106,.T.);
#69=FACE_OUTER_BOUND('',#107,.T.);
#70=FACE_OUTER_BOUND('',#108,.T.);
#71=FACE_OUTER_BOUND('',#109,.T.);
#72=FACE_OUTER_BOUND('',#110,.T.);
#73=FACE_OUTER_BOUND('',#111,.T.);
#74=FACE_OUTER_BOUND('',#112,.T.);
#75=FACE_OUTER_BOUND('',#113,.T.);
#76=FACE_OUTER_BOUND('',#114,.T.);
#77=EDGE_LOOP('',(#369,#370,#371,#372));
#78=EDGE_LOOP('',(#373,#374,#375,#376,#377,#378));
#79=EDGE_LOOP('',(#379,#380,#381,#382,#383,#384));
#80=EDGE_LOOP('',(#385,#386,#387,#388,#389,#390,#391,#392));
#81=EDGE_LOOP('',(#393,#394,#395,#396));
#82=EDGE_LOOP('',(#397,#398,#399,#400));
#83=EDGE_LOOP('',(#401,#402,#403,#404,#405,#406,#407,#408));
#84=EDGE_LOOP('',(#409));
#85=EDGE_LOOP('',(#410));
#86=EDGE_LOOP('',(#411));
#87=EDGE_LOOP('',(#412));
#88=EDGE_LOOP('',(#413,#414,#415,#416));
#89=EDGE_LOOP('',(#417,#418,#419,#420));
#90=EDGE_LOOP('',(#421,#422,#423,#424));
#91=EDGE_LOOP('',(#425,#426,#427,#428));
#92=EDGE_LOOP('',(#429,#430,#431,#432,#433,#434,#435,#436));
#93=EDGE_LOOP('',(#437,#438,#439,#440));
#94=EDGE_LOOP('',(#441));
#95=EDGE_LOOP('',(#442));
#96=EDGE_LOOP('',(#443));
#97=EDGE_LOOP('',(#444));
#98=EDGE_LOOP('',(#445,#446,#447,#448));
#99=EDGE_LOOP('',(#449,#450,#451,#452));
#100=EDGE_LOOP('',(#453,#454,#455,#456));
#101=EDGE_LOOP('',(#457,#458,#459,#460));
#102=EDGE_LOOP('',(#461,#462,#463,#464));
#103=EDGE_LOOP('',(#465,#466,#467,#468));
#104=EDGE_LOOP('',(#469,#470,#471,#472));
#105=EDGE_LOOP('',(#473,#474,#475,#476));
#106=EDGE_LOOP('',(#477,#478,#479,#480));
#107=EDGE_LOOP('',(#481,#482,#483,#484));
#108=EDGE_LOOP('',(#485,#486,#487,#488));
#109=EDGE_LOOP('',(#489,#490,#491,#492));
#110=EDGE_LOOP('',(#493,#494,#495,#496,#497,#498,#499,#500,#501,#502,#503,
#504));
#111=EDGE_LOOP('',(#505,#506,#507,#508));
#112=EDGE_LOOP('',(#509,#510,#511,#512,#513,#514,#515,#516));
#113=EDGE_LOOP('',(#517,#518,#519,#520));
#114=EDGE_LOOP('',(#521,#522,#523,#524));
#115=LINE('',#787,#177);
#116=LINE('',#789,#178);
#117=LINE('',#791,#179);
#118=LINE('',#792,#180);
#119=LINE('',#795,#181);
#120=LINE('',#797,#182);
#121=LINE('',#799,#183);
#122=LINE('',#801,#184);
#123=LINE('',#802,#185);
#124=LINE('',#805,#186);
#125=LINE('',#807,#187);
#126=LINE('',#809,#188);
#127=LINE('',#811,#189);
#128=LINE('',#812,#190);
#129=LINE('',#815,#191);
#130=LINE('',#817,#192);
#131=LINE('',#819,#193);
#132=LINE('',#821,#194);
#133=LINE('',#822,#195);
#134=LINE('',#825,#196);
#135=LINE('',#827,#197);
#136=LINE('',#828,#198);
#137=LINE('',#834,#199);
#138=LINE('',#837,#200);
#139=LINE('',#840,#201);
#140=LINE('',#844,#202);
#141=LINE('',#848,#203);
#142=LINE('',#851,#204);
#143=LINE('',#862,#205);
#144=LINE('',#863,#206);
#145=LINE('',#867,#207);
#146=LINE('',#870,#208);
#147=LINE('',#871,#209);
#148=LINE('',#876,#210);
#149=LINE('',#877,#211);
#150=LINE('',#879,#212);
#151=LINE('',#881,#213);
#152=LINE('',#884,#214);
#153=LINE('',#886,#215);
#154=LINE('',#887,#216);
#155=LINE('',#897,#217);
#156=LINE('',#900,#218);
#157=LINE('',#902,#219);
#158=LINE('',#904,#220);
#159=LINE('',#906,#221);
#160=LINE('',#908,#222);
#161=LINE('',#912,#223);
#162=LINE('',#914,#224);
#163=LINE('',#916,#225);
#164=LINE('',#917,#226);
#165=LINE('',#920,#227);
#166=LINE('',#922,#228);
#167=LINE('',#923,#229);
#168=LINE('',#925,#230);
#169=LINE('',#926,#231);
#170=LINE('',#928,#232);
#171=LINE('',#929,#233);
#172=LINE('',#932,#234);
#173=LINE('',#934,#235);
#174=LINE('',#935,#236);
#175=LINE('',#937,#237);
#176=LINE('',#940,#238);
#177=VECTOR('',#635,10.);
#178=VECTOR('',#636,10.);
#179=VECTOR('',#637,10.);
#180=VECTOR('',#638,10.);
#181=VECTOR('',#641,10.);
#182=VECTOR('',#642,10.);
#183=VECTOR('',#643,10.);
#184=VECTOR('',#644,10.);
#185=VECTOR('',#645,10.);
#186=VECTOR('',#648,10.);
#187=VECTOR('',#649,10.);
#188=VECTOR('',#650,10.);
#189=VECTOR('',#651,10.);
#190=VECTOR('',#652,10.);
#191=VECTOR('',#655,10.);
#192=VECTOR('',#656,10.);
#193=VECTOR('',#657,10.);
#194=VECTOR('',#658,10.);
#195=VECTOR('',#659,10.);
#196=VECTOR('',#662,10.);
#197=VECTOR('',#663,10.);
#198=VECTOR('',#664,10.);
#199=VECTOR('',#669,10.);
#200=VECTOR('',#672,10.);
#201=VECTOR('',#675,10.);
#202=VECTOR('',#678,10.);
#203=VECTOR('',#681,10.);
#204=VECTOR('',#684,10.);
#205=VECTOR('',#695,10.);
#206=VECTOR('',#696,10.);
#207=VECTOR('',#701,10.);
#208=VECTOR('',#704,10.);
#209=VECTOR('',#705,10.);
#210=VECTOR('',#710,10.);
#211=VECTOR('',#711,10.);
#212=VECTOR('',#714,10.);
#213=VECTOR('',#715,10.);
#214=VECTOR('',#718,10.);
#215=VECTOR('',#719,10.);
#216=VECTOR('',#720,10.);
#217=VECTOR('',#731,10.);
#218=VECTOR('',#736,1.45);
#219=VECTOR('',#739,1.45);
#220=VECTOR('',#742,1.45);
#221=VECTOR('',#745,1.45);
#222=VECTOR('',#748,10.);
#223=VECTOR('',#751,10.);
#224=VECTOR('',#752,10.);
#225=VECTOR('',#753,10.);
#226=VECTOR('',#754,10.);
#227=VECTOR('',#757,10.);
#228=VECTOR('',#758,10.);
#229=VECTOR('',#759,10.);
#230=VECTOR('',#762,10.);
#231=VECTOR('',#763,10.);
#232=VECTOR('',#766,10.);
#233=VECTOR('',#767,10.);
#234=VECTOR('',#770,10.);
#235=VECTOR('',#771,10.);
#236=VECTOR('',#772,10.);
#237=VECTOR('',#775,10.);
#238=VECTOR('',#780,10.);
#239=VERTEX_POINT('',#785);
#240=VERTEX_POINT('',#786);
#241=VERTEX_POINT('',#788);
#242=VERTEX_POINT('',#790);
#243=VERTEX_POINT('',#794);
#244=VERTEX_POINT('',#796);
#245=VERTEX_POINT('',#798);
#246=VERTEX_POINT('',#800);
#247=VERTEX_POINT('',#804);
#248=VERTEX_POINT('',#806);
#249=VERTEX_POINT('',#808);
#250=VERTEX_POINT('',#810);
#251=VERTEX_POINT('',#814);
#252=VERTEX_POINT('',#816);
#253=VERTEX_POINT('',#818);
#254=VERTEX_POINT('',#820);
#255=VERTEX_POINT('',#824);
#256=VERTEX_POINT('',#826);
#257=VERTEX_POINT('',#830);
#258=VERTEX_POINT('',#831);
#259=VERTEX_POINT('',#833);
#260=VERTEX_POINT('',#835);
#261=VERTEX_POINT('',#839);
#262=VERTEX_POINT('',#841);
#263=VERTEX_POINT('',#843);
#264=VERTEX_POINT('',#845);
#265=VERTEX_POINT('',#847);
#266=VERTEX_POINT('',#849);
#267=VERTEX_POINT('',#852);
#268=VERTEX_POINT('',#854);
#269=VERTEX_POINT('',#856);
#270=VERTEX_POINT('',#858);
#271=VERTEX_POINT('',#861);
#272=VERTEX_POINT('',#865);
#273=VERTEX_POINT('',#869);
#274=VERTEX_POINT('',#873);
#275=VERTEX_POINT('',#874);
#276=VERTEX_POINT('',#880);
#277=VERTEX_POINT('',#883);
#278=VERTEX_POINT('',#885);
#279=VERTEX_POINT('',#888);
#280=VERTEX_POINT('',#890);
#281=VERTEX_POINT('',#892);
#282=VERTEX_POINT('',#894);
#283=VERTEX_POINT('',#910);
#284=VERTEX_POINT('',#911);
#285=VERTEX_POINT('',#913);
#286=VERTEX_POINT('',#915);
#287=VERTEX_POINT('',#919);
#288=VERTEX_POINT('',#921);
#289=VERTEX_POINT('',#931);
#290=VERTEX_POINT('',#933);
#291=EDGE_CURVE('',#239,#240,#115,.T.);
#292=EDGE_CURVE('',#241,#239,#116,.T.);
#293=EDGE_CURVE('',#242,#241,#117,.T.);
#294=EDGE_CURVE('',#242,#240,#118,.T.);
#295=EDGE_CURVE('',#240,#243,#119,.T.);
#296=EDGE_CURVE('',#244,#242,#120,.T.);
#297=EDGE_CURVE('',#244,#245,#121,.T.);
#298=EDGE_CURVE('',#246,#245,#122,.T.);
#299=EDGE_CURVE('',#243,#246,#123,.T.);
#300=EDGE_CURVE('',#247,#239,#124,.T.);
#301=EDGE_CURVE('',#248,#247,#125,.T.);
#302=EDGE_CURVE('',#249,#248,#126,.T.);
#303=EDGE_CURVE('',#250,#249,#127,.T.);
#304=EDGE_CURVE('',#241,#250,#128,.T.);
#305=EDGE_CURVE('',#243,#251,#129,.T.);
#306=EDGE_CURVE('',#251,#252,#130,.T.);
#307=EDGE_CURVE('',#253,#252,#131,.T.);
#308=EDGE_CURVE('',#254,#253,#132,.T.);
#309=EDGE_CURVE('',#254,#247,#133,.T.);
#310=EDGE_CURVE('',#255,#245,#134,.T.);
#311=EDGE_CURVE('',#255,#256,#135,.T.);
#312=EDGE_CURVE('',#246,#256,#136,.T.);
#313=EDGE_CURVE('',#257,#258,#25,.T.);
#314=EDGE_CURVE('',#259,#257,#137,.T.);
#315=EDGE_CURVE('',#260,#259,#26,.T.);
#316=EDGE_CURVE('',#260,#258,#138,.T.);
#317=EDGE_CURVE('',#261,#259,#139,.T.);
#318=EDGE_CURVE('',#261,#262,#27,.T.);
#319=EDGE_CURVE('',#263,#262,#140,.T.);
#320=EDGE_CURVE('',#263,#264,#28,.T.);
#321=EDGE_CURVE('',#265,#264,#141,.T.);
#322=EDGE_CURVE('',#265,#266,#29,.T.);
#323=EDGE_CURVE('',#260,#266,#142,.T.);
#324=EDGE_CURVE('',#267,#267,#30,.T.);
#325=EDGE_CURVE('',#268,#268,#31,.T.);
#326=EDGE_CURVE('',#269,#269,#32,.T.);
#327=EDGE_CURVE('',#270,#270,#33,.T.);
#328=EDGE_CURVE('',#271,#257,#143,.T.);
#329=EDGE_CURVE('',#261,#271,#144,.T.);
#330=EDGE_CURVE('',#272,#271,#34,.T.);
#331=EDGE_CURVE('',#262,#272,#145,.T.);
#332=EDGE_CURVE('',#273,#272,#146,.T.);
#333=EDGE_CURVE('',#263,#273,#147,.T.);
#334=EDGE_CURVE('',#274,#275,#35,.T.);
#335=EDGE_CURVE('',#266,#274,#148,.T.);
#336=EDGE_CURVE('',#265,#275,#149,.T.);
#337=EDGE_CURVE('',#258,#274,#150,.T.);
#338=EDGE_CURVE('',#275,#276,#151,.T.);
#339=EDGE_CURVE('',#276,#273,#36,.T.);
#340=EDGE_CURVE('',#277,#253,#152,.T.);
#341=EDGE_CURVE('',#252,#278,#153,.T.);
#342=EDGE_CURVE('',#278,#277,#154,.T.);
#343=EDGE_CURVE('',#279,#279,#37,.T.);
#344=EDGE_CURVE('',#280,#280,#38,.T.);
#345=EDGE_CURVE('',#281,#281,#39,.T.);
#346=EDGE_CURVE('',#282,#282,#40,.T.);
#347=EDGE_CURVE('',#264,#276,#155,.T.);
#348=EDGE_CURVE('',#282,#270,#156,.T.);
#349=EDGE_CURVE('',#281,#269,#157,.T.);
#350=EDGE_CURVE('',#280,#268,#158,.T.);
#351=EDGE_CURVE('',#279,#267,#159,.T.);
#352=EDGE_CURVE('',#250,#244,#160,.T.);
#353=EDGE_CURVE('',#283,#284,#161,.T.);
#354=EDGE_CURVE('',#283,#285,#162,.T.);
#355=EDGE_CURVE('',#286,#285,#163,.T.);
#356=EDGE_CURVE('',#284,#286,#164,.T.);
#357=EDGE_CURVE('',#284,#287,#165,.T.);
#358=EDGE_CURVE('',#288,#286,#166,.T.);
#359=EDGE_CURVE('',#287,#288,#167,.T.);
#360=EDGE_CURVE('',#287,#255,#168,.T.);
#361=EDGE_CURVE('',#256,#288,#169,.T.);
#362=EDGE_CURVE('',#285,#248,#170,.T.);
#363=EDGE_CURVE('',#249,#283,#171,.T.);
#364=EDGE_CURVE('',#289,#254,#172,.T.);
#365=EDGE_CURVE('',#290,#289,#173,.T.);
#366=EDGE_CURVE('',#251,#290,#174,.T.);
#367=EDGE_CURVE('',#289,#277,#175,.T.);
#368=EDGE_CURVE('',#290,#278,#176,.T.);
#369=ORIENTED_EDGE('',*,*,#291,.F.);
#370=ORIENTED_EDGE('',*,*,#292,.F.);
#371=ORIENTED_EDGE('',*,*,#293,.F.);
#372=ORIENTED_EDGE('',*,*,#294,.T.);
#373=ORIENTED_EDGE('',*,*,#295,.F.);
#374=ORIENTED_EDGE('',*,*,#294,.F.);
#375=ORIENTED_EDGE('',*,*,#296,.F.);
#376=ORIENTED_EDGE('',*,*,#297,.T.);
#377=ORIENTED_EDGE('',*,*,#298,.F.);
#378=ORIENTED_EDGE('',*,*,#299,.F.);
#379=ORIENTED_EDGE('',*,*,#300,.F.);
#380=ORIENTED_EDGE('',*,*,#301,.F.);
#381=ORIENTED_EDGE('',*,*,#302,.F.);
#382=ORIENTED_EDGE('',*,*,#303,.F.);
#383=ORIENTED_EDGE('',*,*,#304,.F.);
#384=ORIENTED_EDGE('',*,*,#292,.T.);
#385=ORIENTED_EDGE('',*,*,#300,.T.);
#386=ORIENTED_EDGE('',*,*,#291,.T.);
#387=ORIENTED_EDGE('',*,*,#295,.T.);
#388=ORIENTED_EDGE('',*,*,#305,.T.);
#389=ORIENTED_EDGE('',*,*,#306,.T.);
#390=ORIENTED_EDGE('',*,*,#307,.F.);
#391=ORIENTED_EDGE('',*,*,#308,.F.);
#392=ORIENTED_EDGE('',*,*,#309,.T.);
#393=ORIENTED_EDGE('',*,*,#298,.T.);
#394=ORIENTED_EDGE('',*,*,#310,.F.);
#395=ORIENTED_EDGE('',*,*,#311,.T.);
#396=ORIENTED_EDGE('',*,*,#312,.F.);
#397=ORIENTED_EDGE('',*,*,#313,.F.);
#398=ORIENTED_EDGE('',*,*,#314,.F.);
#399=ORIENTED_EDGE('',*,*,#315,.F.);
#400=ORIENTED_EDGE('',*,*,#316,.T.);
#401=ORIENTED_EDGE('',*,*,#315,.T.);
#402=ORIENTED_EDGE('',*,*,#317,.F.);
#403=ORIENTED_EDGE('',*,*,#318,.T.);
#404=ORIENTED_EDGE('',*,*,#319,.F.);
#405=ORIENTED_EDGE('',*,*,#320,.T.);
#406=ORIENTED_EDGE('',*,*,#321,.F.);
#407=ORIENTED_EDGE('',*,*,#322,.T.);
#408=ORIENTED_EDGE('',*,*,#323,.F.);
#409=ORIENTED_EDGE('',*,*,#324,.T.);
#410=ORIENTED_EDGE('',*,*,#325,.T.);
#411=ORIENTED_EDGE('',*,*,#326,.T.);
#412=ORIENTED_EDGE('',*,*,#327,.T.);
#413=ORIENTED_EDGE('',*,*,#314,.T.);
#414=ORIENTED_EDGE('',*,*,#328,.F.);
#415=ORIENTED_EDGE('',*,*,#329,.F.);
#416=ORIENTED_EDGE('',*,*,#317,.T.);
#417=ORIENTED_EDGE('',*,*,#330,.F.);
#418=ORIENTED_EDGE('',*,*,#331,.F.);
#419=ORIENTED_EDGE('',*,*,#318,.F.);
#420=ORIENTED_EDGE('',*,*,#329,.T.);
#421=ORIENTED_EDGE('',*,*,#331,.T.);
#422=ORIENTED_EDGE('',*,*,#332,.F.);
#423=ORIENTED_EDGE('',*,*,#333,.F.);
#424=ORIENTED_EDGE('',*,*,#319,.T.);
#425=ORIENTED_EDGE('',*,*,#334,.F.);
#426=ORIENTED_EDGE('',*,*,#335,.F.);
#427=ORIENTED_EDGE('',*,*,#322,.F.);
#428=ORIENTED_EDGE('',*,*,#336,.T.);
#429=ORIENTED_EDGE('',*,*,#313,.T.);
#430=ORIENTED_EDGE('',*,*,#337,.T.);
#431=ORIENTED_EDGE('',*,*,#334,.T.);
#432=ORIENTED_EDGE('',*,*,#338,.T.);
#433=ORIENTED_EDGE('',*,*,#339,.T.);
#434=ORIENTED_EDGE('',*,*,#332,.T.);
#435=ORIENTED_EDGE('',*,*,#330,.T.);
#436=ORIENTED_EDGE('',*,*,#328,.T.);
#437=ORIENTED_EDGE('',*,*,#340,.T.);
#438=ORIENTED_EDGE('',*,*,#307,.T.);
#439=ORIENTED_EDGE('',*,*,#341,.T.);
#440=ORIENTED_EDGE('',*,*,#342,.T.);
#441=ORIENTED_EDGE('',*,*,#343,.T.);
#442=ORIENTED_EDGE('',*,*,#344,.T.);
#443=ORIENTED_EDGE('',*,*,#345,.T.);
#444=ORIENTED_EDGE('',*,*,#346,.T.);
#445=ORIENTED_EDGE('',*,*,#339,.F.);
#446=ORIENTED_EDGE('',*,*,#347,.F.);
#447=ORIENTED_EDGE('',*,*,#320,.F.);
#448=ORIENTED_EDGE('',*,*,#333,.T.);
#449=ORIENTED_EDGE('',*,*,#336,.F.);
#450=ORIENTED_EDGE('',*,*,#321,.T.);
#451=ORIENTED_EDGE('',*,*,#347,.T.);
#452=ORIENTED_EDGE('',*,*,#338,.F.);
#453=ORIENTED_EDGE('',*,*,#346,.F.);
#454=ORIENTED_EDGE('',*,*,#348,.T.);
#455=ORIENTED_EDGE('',*,*,#327,.F.);
#456=ORIENTED_EDGE('',*,*,#348,.F.);
#457=ORIENTED_EDGE('',*,*,#345,.F.);
#458=ORIENTED_EDGE('',*,*,#349,.T.);
#459=ORIENTED_EDGE('',*,*,#326,.F.);
#460=ORIENTED_EDGE('',*,*,#349,.F.);
#461=ORIENTED_EDGE('',*,*,#344,.F.);
#462=ORIENTED_EDGE('',*,*,#350,.T.);
#463=ORIENTED_EDGE('',*,*,#325,.F.);
#464=ORIENTED_EDGE('',*,*,#350,.F.);
#465=ORIENTED_EDGE('',*,*,#343,.F.);
#466=ORIENTED_EDGE('',*,*,#351,.T.);
#467=ORIENTED_EDGE('',*,*,#324,.F.);
#468=ORIENTED_EDGE('',*,*,#351,.F.);
#469=ORIENTED_EDGE('',*,*,#316,.F.);
#470=ORIENTED_EDGE('',*,*,#323,.T.);
#471=ORIENTED_EDGE('',*,*,#335,.T.);
#472=ORIENTED_EDGE('',*,*,#337,.F.);
#473=ORIENTED_EDGE('',*,*,#352,.T.);
#474=ORIENTED_EDGE('',*,*,#296,.T.);
#475=ORIENTED_EDGE('',*,*,#293,.T.);
#476=ORIENTED_EDGE('',*,*,#304,.T.);
#477=ORIENTED_EDGE('',*,*,#353,.F.);
#478=ORIENTED_EDGE('',*,*,#354,.T.);
#479=ORIENTED_EDGE('',*,*,#355,.F.);
#480=ORIENTED_EDGE('',*,*,#356,.F.);
#481=ORIENTED_EDGE('',*,*,#357,.F.);
#482=ORIENTED_EDGE('',*,*,#356,.T.);
#483=ORIENTED_EDGE('',*,*,#358,.F.);
#484=ORIENTED_EDGE('',*,*,#359,.F.);
#485=ORIENTED_EDGE('',*,*,#360,.F.);
#486=ORIENTED_EDGE('',*,*,#359,.T.);
#487=ORIENTED_EDGE('',*,*,#361,.F.);
#488=ORIENTED_EDGE('',*,*,#311,.F.);
#489=ORIENTED_EDGE('',*,*,#302,.T.);
#490=ORIENTED_EDGE('',*,*,#362,.F.);
#491=ORIENTED_EDGE('',*,*,#354,.F.);
#492=ORIENTED_EDGE('',*,*,#363,.F.);
#493=ORIENTED_EDGE('',*,*,#301,.T.);
#494=ORIENTED_EDGE('',*,*,#309,.F.);
#495=ORIENTED_EDGE('',*,*,#364,.F.);
#496=ORIENTED_EDGE('',*,*,#365,.F.);
#497=ORIENTED_EDGE('',*,*,#366,.F.);
#498=ORIENTED_EDGE('',*,*,#305,.F.);
#499=ORIENTED_EDGE('',*,*,#299,.T.);
#500=ORIENTED_EDGE('',*,*,#312,.T.);
#501=ORIENTED_EDGE('',*,*,#361,.T.);
#502=ORIENTED_EDGE('',*,*,#358,.T.);
#503=ORIENTED_EDGE('',*,*,#355,.T.);
#504=ORIENTED_EDGE('',*,*,#362,.T.);
#505=ORIENTED_EDGE('',*,*,#364,.T.);
#506=ORIENTED_EDGE('',*,*,#308,.T.);
#507=ORIENTED_EDGE('',*,*,#340,.F.);
#508=ORIENTED_EDGE('',*,*,#367,.F.);
#509=ORIENTED_EDGE('',*,*,#363,.T.);
#510=ORIENTED_EDGE('',*,*,#353,.T.);
#511=ORIENTED_EDGE('',*,*,#357,.T.);
#512=ORIENTED_EDGE('',*,*,#360,.T.);
#513=ORIENTED_EDGE('',*,*,#310,.T.);
#514=ORIENTED_EDGE('',*,*,#297,.F.);
#515=ORIENTED_EDGE('',*,*,#352,.F.);
#516=ORIENTED_EDGE('',*,*,#303,.T.);
#517=ORIENTED_EDGE('',*,*,#366,.T.);
#518=ORIENTED_EDGE('',*,*,#368,.T.);
#519=ORIENTED_EDGE('',*,*,#341,.F.);
#520=ORIENTED_EDGE('',*,*,#306,.F.);
#521=ORIENTED_EDGE('',*,*,#365,.T.);
#522=ORIENTED_EDGE('',*,*,#367,.T.);
#523=ORIENTED_EDGE('',*,*,#342,.F.);
#524=ORIENTED_EDGE('',*,*,#368,.F.);
#525=PLANE('',#587);
#526=PLANE('',#588);
#527=PLANE('',#589);
#528=PLANE('',#590);
#529=PLANE('',#591);
#530=PLANE('',#595);
#531=PLANE('',#603);
#532=PLANE('',#606);
#533=PLANE('',#609);
#534=PLANE('',#616);
#535=PLANE('',#621);
#536=PLANE('',#622);
#537=PLANE('',#623);
#538=PLANE('',#624);
#539=PLANE('',#625);
#540=PLANE('',#626);
#541=PLANE('',#627);
#542=PLANE('',#628);
#543=PLANE('',#629);
#544=PLANE('',#630);
#545=ADVANCED_FACE('',(#49),#525,.F.);
#546=ADVANCED_FACE('',(#50),#526,.F.);
#547=ADVANCED_FACE('',(#51),#527,.F.);
#548=ADVANCED_FACE('',(#52),#528,.T.);
#549=ADVANCED_FACE('',(#53),#529,.T.);
#550=ADVANCED_FACE('',(#54),#41,.T.);
#551=ADVANCED_FACE('',(#55,#15,#16,#17,#18),#530,.F.);
#552=ADVANCED_FACE('',(#56),#531,.T.);
#553=ADVANCED_FACE('',(#57),#42,.T.);
#554=ADVANCED_FACE('',(#58),#532,.T.);
#555=ADVANCED_FACE('',(#59),#43,.T.);
#556=ADVANCED_FACE('',(#60,#19,#20,#21,#22,#23),#533,.T.);
#557=ADVANCED_FACE('',(#61),#44,.T.);
#558=ADVANCED_FACE('',(#62),#534,.T.);
#559=ADVANCED_FACE('',(#63),#45,.F.);
#560=ADVANCED_FACE('',(#64),#46,.F.);
#561=ADVANCED_FACE('',(#65),#47,.F.);
#562=ADVANCED_FACE('',(#66),#48,.F.);
#563=ADVANCED_FACE('',(#67,#24),#535,.T.);
#564=ADVANCED_FACE('',(#68),#536,.T.);
#565=ADVANCED_FACE('',(#69),#537,.T.);
#566=ADVANCED_FACE('',(#70),#538,.T.);
#567=ADVANCED_FACE('',(#71),#539,.T.);
#568=ADVANCED_FACE('',(#72),#540,.T.);
#569=ADVANCED_FACE('',(#73),#541,.T.);
#570=ADVANCED_FACE('',(#74),#542,.T.);
#571=ADVANCED_FACE('',(#75),#543,.T.);
#572=ADVANCED_FACE('',(#76),#544,.T.);
#573=CLOSED_SHELL('',(#545,#546,#547,#548,#549,#550,#551,#552,#553,#554,
#555,#556,#557,#558,#559,#560,#561,#562,#563,#564,#565,#566,#567,#568,#569,
#570,#571,#572));
#574=DERIVED_UNIT_ELEMENT(#576,1.);
#575=DERIVED_UNIT_ELEMENT(#947,-3.);
#576=(
MASS_UNIT()
NAMED_UNIT(*)
SI_UNIT(.KILO.,.GRAM.)
);
#577=DERIVED_UNIT((#574,#575));
#578=MEASURE_REPRESENTATION_ITEM('density measure',
POSITIVE_RATIO_MEASURE(7850.),#577);
#579=PROPERTY_DEFINITION_REPRESENTATION(#584,#581);
#580=PROPERTY_DEFINITION_REPRESENTATION(#585,#582);
#581=REPRESENTATION('material name',(#583),#944);
#582=REPRESENTATION('density',(#578),#944);
#583=DESCRIPTIVE_REPRESENTATION_ITEM('Steel','Steel');
#584=PROPERTY_DEFINITION('material property','material name',#954);
#585=PROPERTY_DEFINITION('material property','density of part',#954);
#586=AXIS2_PLACEMENT_3D('',#783,#631,#632);
#587=AXIS2_PLACEMENT_3D('',#784,#633,#634);
#588=AXIS2_PLACEMENT_3D('',#793,#639,#640);
#589=AXIS2_PLACEMENT_3D('',#803,#646,#647);
#590=AXIS2_PLACEMENT_3D('',#813,#653,#654);
#591=AXIS2_PLACEMENT_3D('',#823,#660,#661);
#592=AXIS2_PLACEMENT_3D('',#829,#665,#666);
#593=AXIS2_PLACEMENT_3D('',#832,#667,#668);
#594=AXIS2_PLACEMENT_3D('',#836,#670,#671);
#595=AXIS2_PLACEMENT_3D('',#838,#673,#674);
#596=AXIS2_PLACEMENT_3D('',#842,#676,#677);
#597=AXIS2_PLACEMENT_3D('',#846,#679,#680);
#598=AXIS2_PLACEMENT_3D('',#850,#682,#683);
#599=AXIS2_PLACEMENT_3D('',#853,#685,#686);
#600=AXIS2_PLACEMENT_3D('',#855,#687,#688);
#601=AXIS2_PLACEMENT_3D('',#857,#689,#690);
#602=AXIS2_PLACEMENT_3D('',#859,#691,#692);
#603=AXIS2_PLACEMENT_3D('',#860,#693,#694);
#604=AXIS2_PLACEMENT_3D('',#864,#697,#698);
#605=AXIS2_PLACEMENT_3D('',#866,#699,#700);
#606=AXIS2_PLACEMENT_3D('',#868,#702,#703);
#607=AXIS2_PLACEMENT_3D('',#872,#706,#707);
#608=AXIS2_PLACEMENT_3D('',#875,#708,#709);
#609=AXIS2_PLACEMENT_3D('',#878,#712,#713);
#610=AXIS2_PLACEMENT_3D('',#882,#716,#717);
#611=AXIS2_PLACEMENT_3D('',#889,#721,#722);
#612=AXIS2_PLACEMENT_3D('',#891,#723,#724);
#613=AXIS2_PLACEMENT_3D('',#893,#725,#726);
#614=AXIS2_PLACEMENT_3D('',#895,#727,#728);
#615=AXIS2_PLACEMENT_3D('',#896,#729,#730);
#616=AXIS2_PLACEMENT_3D('',#898,#732,#733);
#617=AXIS2_PLACEMENT_3D('',#899,#734,#735);
#618=AXIS2_PLACEMENT_3D('',#901,#737,#738);
#619=AXIS2_PLACEMENT_3D('',#903,#740,#741);
#620=AXIS2_PLACEMENT_3D('',#905,#743,#744);
#621=AXIS2_PLACEMENT_3D('',#907,#746,#747);
#622=AXIS2_PLACEMENT_3D('',#909,#749,#750);
#623=AXIS2_PLACEMENT_3D('',#918,#755,#756);
#624=AXIS2_PLACEMENT_3D('',#924,#760,#761);
#625=AXIS2_PLACEMENT_3D('',#927,#764,#765);
#626=AXIS2_PLACEMENT_3D('',#930,#768,#769);
#627=AXIS2_PLACEMENT_3D('',#936,#773,#774);
#628=AXIS2_PLACEMENT_3D('',#938,#776,#777);
#629=AXIS2_PLACEMENT_3D('',#939,#778,#779);
#630=AXIS2_PLACEMENT_3D('',#941,#781,#782);
#631=DIRECTION('axis',(0.,0.,1.));
#632=DIRECTION('refdir',(1.,0.,0.));
#633=DIRECTION('center_axis',(0.,0.,1.));
#634=DIRECTION('ref_axis',(-1.,0.,0.));
#635=DIRECTION('',(1.,0.,0.));
#636=DIRECTION('',(0.,-1.,0.));
#637=DIRECTION('',(-1.,0.,0.));
#638=DIRECTION('',(0.,-1.,0.));
#639=DIRECTION('center_axis',(1.,0.,0.));
#640=DIRECTION('ref_axis',(0.,0.,1.));
#641=DIRECTION('',(0.,0.,-1.));
#642=DIRECTION('',(0.,0.,1.));
#643=DIRECTION('',(0.,-1.,0.));
#644=DIRECTION('',(0.,0.,-1.));
#645=DIRECTION('',(0.,-1.,0.));
#646=DIRECTION('center_axis',(-1.,0.,0.));
#647=DIRECTION('ref_axis',(0.,0.,-1.));
#648=DIRECTION('',(0.,0.,1.));
#649=DIRECTION('',(0.,1.,0.));
#650=DIRECTION('',(0.,0.,1.));
#651=DIRECTION('',(0.,-1.,0.));
#652=DIRECTION('',(0.,0.,-1.));
#653=DIRECTION('center_axis',(0.,-1.,0.));
#654=DIRECTION('ref_axis',(1.,0.,0.));
#655=DIRECTION('',(1.,0.,0.));
#656=DIRECTION('',(0.,0.,1.));
#657=DIRECTION('',(1.,0.,0.));
#658=DIRECTION('',(0.,0.,1.));
#659=DIRECTION('',(1.,0.,0.));
#660=DIRECTION('center_axis',(0.,-1.,0.));
#661=DIRECTION('ref_axis',(1.,0.,0.));
#662=DIRECTION('',(-1.,0.,0.));
#663=DIRECTION('',(0.,0.,1.));
#664=DIRECTION('',(1.,0.,0.));
#665=DIRECTION('center_axis',(0.,0.,-1.));
#666=DIRECTION('ref_axis',(1.,0.,0.));
#667=DIRECTION('center_axis',(0.,0.,1.));
#668=DIRECTION('ref_axis',(1.,0.,0.));
#669=DIRECTION('',(0.,0.,1.));
#670=DIRECTION('center_axis',(0.,0.,-1.));
#671=DIRECTION('ref_axis',(1.,0.,0.));
#672=DIRECTION('',(0.,0.,1.));
#673=DIRECTION('center_axis',(0.,0.,1.));
#674=DIRECTION('ref_axis',(1.,0.,0.));
#675=DIRECTION('',(0.,1.,0.));
#676=DIRECTION('center_axis',(0.,0.,-1.));
#677=DIRECTION('ref_axis',(0.,-1.,0.));
#678=DIRECTION('',(1.,0.,0.));
#679=DIRECTION('center_axis',(0.,0.,-1.));
#680=DIRECTION('ref_axis',(-1.,-3.60822483003176E-15,0.));
#681=DIRECTION('',(0.,-1.,0.));
#682=DIRECTION('center_axis',(0.,0.,-1.));
#683=DIRECTION('ref_axis',(6.10622663543838E-15,1.,0.));
#684=DIRECTION('',(-1.,0.,0.));
#685=DIRECTION('center_axis',(0.,0.,1.));
#686=DIRECTION('ref_axis',(1.,0.,0.));
#687=DIRECTION('center_axis',(0.,0.,1.));
#688=DIRECTION('ref_axis',(1.,0.,0.));
#689=DIRECTION('center_axis',(0.,0.,1.));
#690=DIRECTION('ref_axis',(1.,0.,0.));
#691=DIRECTION('center_axis',(0.,0.,1.));
#692=DIRECTION('ref_axis',(1.,0.,0.));
#693=DIRECTION('center_axis',(1.,0.,0.));
#694=DIRECTION('ref_axis',(0.,1.,0.));
#695=DIRECTION('',(0.,1.,0.));
#696=DIRECTION('',(0.,0.,1.));
#697=DIRECTION('center_axis',(0.,0.,-1.));
#698=DIRECTION('ref_axis',(0.,-1.,0.));
#699=DIRECTION('center_axis',(0.,0.,1.));
#700=DIRECTION('ref_axis',(0.,-1.,0.));
#701=DIRECTION('',(0.,0.,1.));
#702=DIRECTION('center_axis',(0.,-1.,0.));
#703=DIRECTION('ref_axis',(1.,0.,0.));
#704=DIRECTION('',(1.,0.,0.));
#705=DIRECTION('',(0.,0.,1.));
#706=DIRECTION('center_axis',(0.,0.,-1.));
#707=DIRECTION('ref_axis',(6.10622663543838E-15,1.,0.));
#708=DIRECTION('center_axis',(0.,0.,1.));
#709=DIRECTION('ref_axis',(6.10622663543838E-15,1.,0.));
#710=DIRECTION('',(0.,0.,1.));
#711=DIRECTION('',(0.,0.,1.));
#712=DIRECTION('center_axis',(0.,0.,1.));
#713=DIRECTION('ref_axis',(1.,0.,0.));
#714=DIRECTION('',(-1.,0.,0.));
#715=DIRECTION('',(0.,-1.,0.));
#716=DIRECTION('center_axis',(0.,0.,1.));
#717=DIRECTION('ref_axis',(-1.,-3.60822483003176E-15,0.));
#718=DIRECTION('',(0.,1.,0.));
#719=DIRECTION('',(-1.0412301921291E-8,-1.,0.));
#720=DIRECTION('',(-1.,0.,0.));
#721=DIRECTION('center_axis',(0.,0.,-1.));
#722=DIRECTION('ref_axis',(1.,0.,0.));
#723=DIRECTION('center_axis',(0.,0.,-1.));
#724=DIRECTION('ref_axis',(1.,0.,0.));
#725=DIRECTION('center_axis',(0.,0.,-1.));
#726=DIRECTION('ref_axis',(1.,0.,0.));
#727=DIRECTION('center_axis',(0.,0.,-1.));
#728=DIRECTION('ref_axis',(1.,0.,0.));
#729=DIRECTION('center_axis',(0.,0.,-1.));
#730=DIRECTION('ref_axis',(-1.,-3.60822483003176E-15,0.));
#731=DIRECTION('',(0.,0.,1.));
#732=DIRECTION('center_axis',(-1.,0.,0.));
#733=DIRECTION('ref_axis',(0.,-1.,0.));
#734=DIRECTION('center_axis',(0.,0.,-1.));
#735=DIRECTION('ref_axis',(1.,0.,0.));
#736=DIRECTION('',(0.,0.,-1.));
#737=DIRECTION('center_axis',(0.,0.,-1.));
#738=DIRECTION('ref_axis',(1.,0.,0.));
#739=DIRECTION('',(0.,0.,-1.));
#740=DIRECTION('center_axis',(0.,0.,-1.));
#741=DIRECTION('ref_axis',(1.,0.,0.));
#742=DIRECTION('',(0.,0.,-1.));
#743=DIRECTION('center_axis',(0.,0.,-1.));
#744=DIRECTION('ref_axis',(1.,0.,0.));
#745=DIRECTION('',(0.,0.,-1.));
#746=DIRECTION('center_axis',(0.,1.,0.));
#747=DIRECTION('ref_axis',(-1.,0.,0.));
#748=DIRECTION('',(1.,0.,0.));
#749=DIRECTION('center_axis',(1.,0.,0.));
#750=DIRECTION('ref_axis',(0.,1.,0.));
#751=DIRECTION('',(0.,-1.,0.));
#752=DIRECTION('',(0.,0.,1.));
#753=DIRECTION('',(0.,1.,0.));
#754=DIRECTION('',(0.,0.,1.));
#755=DIRECTION('center_axis',(0.,1.,0.));
#756=DIRECTION('ref_axis',(-1.,0.,0.));
#757=DIRECTION('',(1.,0.,0.));
#758=DIRECTION('',(-1.,0.,0.));
#759=DIRECTION('',(0.,0.,1.));
#760=DIRECTION('center_axis',(-1.,0.,0.));
#761=DIRECTION('ref_axis',(0.,-1.,0.));
#762=DIRECTION('',(0.,1.,0.));
#763=DIRECTION('',(0.,-1.,0.));
#764=DIRECTION('center_axis',(0.,-1.,0.));
#765=DIRECTION('ref_axis',(1.,0.,0.));
#766=DIRECTION('',(1.,0.,0.));
#767=DIRECTION('',(-1.,0.,0.));
#768=DIRECTION('center_axis',(0.,0.,1.));
#769=DIRECTION('ref_axis',(1.,0.,0.));
#770=DIRECTION('',(0.,1.,0.));
#771=DIRECTION('',(-1.,0.,0.));
#772=DIRECTION('',(-1.0412301921291E-8,-1.,0.));
#773=DIRECTION('center_axis',(1.,0.,0.));
#774=DIRECTION('ref_axis',(0.,1.,0.));
#775=DIRECTION('',(0.,0.,1.));
#776=DIRECTION('center_axis',(0.,0.,1.));
#777=DIRECTION('ref_axis',(1.,0.,0.));
#778=DIRECTION('center_axis',(-1.,1.0412301921291E-8,0.));
#779=DIRECTION('ref_axis',(-1.0412301921291E-8,-1.,0.));
#780=DIRECTION('',(0.,0.,1.));
#781=DIRECTION('center_axis',(0.,1.,0.));
#782=DIRECTION('ref_axis',(-1.,0.,0.));
#783=CARTESIAN_POINT('',(0.,0.,0.));
#784=CARTESIAN_POINT('Origin',(16.2500003948808,84.4999981112778,8.00000011920929));
#785=CARTESIAN_POINT('',(6.25000039488077,80.5000011995435,8.00000011920929));
#786=CARTESIAN_POINT('',(16.2500003948808,80.5000011995435,8.00000011920929));
#787=CARTESIAN_POINT('',(8.12500019744038,80.5000011995435,8.00000011920929));
#788=CARTESIAN_POINT('',(6.25000039488077,84.4999981112778,8.00000011920929));
#789=CARTESIAN_POINT('',(6.25000039488077,84.4999981112778,8.00000011920929));
#790=CARTESIAN_POINT('',(16.2500003948808,84.4999981112778,8.00000011920929));
#791=CARTESIAN_POINT('',(21.3750003948808,84.4999981112778,8.00000011920929));
#792=CARTESIAN_POINT('',(16.2500003948808,84.4999981112778,8.00000011920929));
#793=CARTESIAN_POINT('Origin',(16.2500003948808,84.4999981112778,3.00000004470348));
#794=CARTESIAN_POINT('',(16.2500003948808,80.5000011995435,4.));
#795=CARTESIAN_POINT('',(16.2500003948808,80.5000011995435,1.50000002235174));
#796=CARTESIAN_POINT('',(16.2500003948808,84.4999981112778,3.00000004470348));
#797=CARTESIAN_POINT('',(16.2500003948808,84.4999981112778,1.50000002235174));
#798=CARTESIAN_POINT('',(16.2500003948808,79.9999982118607,3.00000004470348));
#799=CARTESIAN_POINT('',(16.2500003948808,84.4999981112778,3.00000004470348));
#800=CARTESIAN_POINT('',(16.2500003948808,79.9999982118607,4.));
#801=CARTESIAN_POINT('',(16.2500003948808,79.9999982118607,3.00000002235174));
#802=CARTESIAN_POINT('',(16.2500003948808,62.3749990556389,4.));
#803=CARTESIAN_POINT('Origin',(6.25000039488077,84.4999981112778,8.00000011920929));
#804=CARTESIAN_POINT('',(6.25000039488077,80.5000011995435,4.));
#805=CARTESIAN_POINT('',(6.25000039488077,80.5000011995435,4.00000005960464));
#806=CARTESIAN_POINT('',(6.25000039488077,79.9999982118607,4.));
#807=CARTESIAN_POINT('',(6.25000039488077,62.3749990556389,4.));
#808=CARTESIAN_POINT('',(6.25000039488077,79.9999982118607,3.00000004470348));
#809=CARTESIAN_POINT('',(6.25000039488077,79.9999982118607,5.50000005960464));
#810=CARTESIAN_POINT('',(6.25000039488077,84.4999981112778,3.00000004470348));
#811=CARTESIAN_POINT('',(6.25000039488077,84.4999981112778,3.00000004470348));
#812=CARTESIAN_POINT('',(6.25000039488077,84.4999981112778,4.00000005960464));
#813=CARTESIAN_POINT('Origin',(0.,80.5000011995435,0.));
#814=CARTESIAN_POINT('',(22.5,80.5,4.));
#815=CARTESIAN_POINT('',(5.625,80.5000011995435,4.));
#816=CARTESIAN_POINT('',(22.5000003352761,80.5000011995435,13.));
#817=CARTESIAN_POINT('',(22.5000003352761,80.5000011995435,0.));
#818=CARTESIAN_POINT('',(0.,80.5000011995435,13.));
#819=CARTESIAN_POINT('',(0.,80.5000011995435,13.));
#820=CARTESIAN_POINT('',(0.,80.5,4.));
#821=CARTESIAN_POINT('',(0.,80.5000011995435,0.));
#822=CARTESIAN_POINT('',(5.625,80.5000011995435,4.));
#823=CARTESIAN_POINT('Origin',(0.499999988824129,79.9999982118607,3.));
#824=CARTESIAN_POINT('',(21.9999995082617,79.9999982118607,3.));
#825=CARTESIAN_POINT('',(5.87499999441206,79.9999982118607,3.));
#826=CARTESIAN_POINT('',(21.9999995082617,79.9999982118607,4.));
#827=CARTESIAN_POINT('',(21.9999995082617,79.9999982118607,3.));
#828=CARTESIAN_POINT('',(0.499999988824129,79.9999982118607,4.));
#829=CARTESIAN_POINT('Origin',(24.5000003948808,82.4999981112778,13.));
#830=CARTESIAN_POINT('',(26.5000003948808,82.4999981112778,13.));
#831=CARTESIAN_POINT('',(24.5000003948808,84.4999981112778,13.));
#832=CARTESIAN_POINT('Origin',(24.5000003948808,82.4999981112778,13.));
#833=CARTESIAN_POINT('',(26.5000003948808,82.4999981112778,0.));
#834=CARTESIAN_POINT('',(26.5000003948808,82.4999981112778,13.));
#835=CARTESIAN_POINT('',(24.5000003948808,84.4999981112778,0.));
#836=CARTESIAN_POINT('Origin',(24.5000003948808,82.4999981112778,0.));
#837=CARTESIAN_POINT('',(24.5000003948808,84.4999981112778,13.));
#838=CARTESIAN_POINT('Origin',(11.25,40.25,0.));
#839=CARTESIAN_POINT('',(26.5000003948808,-2.00000005960465,0.));
#840=CARTESIAN_POINT('',(26.5000003948808,-4.00000005960464,0.));
#841=CARTESIAN_POINT('',(24.5000003948808,-4.00000005960464,0.));
#842=CARTESIAN_POINT('Origin',(24.5000003948808,-2.00000005960464,0.));
#843=CARTESIAN_POINT('',(-2.00000005960464,-4.00000005960464,0.));
#844=CARTESIAN_POINT('',(-4.00000005960464,-4.00000005960464,0.));
#845=CARTESIAN_POINT('',(-4.00000005960464,-2.00000005960465,0.));
#846=CARTESIAN_POINT('Origin',(-2.00000005960464,-2.00000005960464,0.));
#847=CARTESIAN_POINT('',(-4.00000005960465,82.4999981112778,0.));
#848=CARTESIAN_POINT('',(-4.00000005960464,84.4999981112778,0.));
#849=CARTESIAN_POINT('',(-2.00000005960464,84.4999981112778,0.));
#850=CARTESIAN_POINT('Origin',(-2.00000005960466,82.4999981112778,0.));
#851=CARTESIAN_POINT('',(26.5000003948808,84.4999981112778,0.));
#852=CARTESIAN_POINT('',(-3.25001063740646,-1.8,0.));
#853=CARTESIAN_POINT('Origin',(-1.80001063740646,-1.8,0.));
#854=CARTESIAN_POINT('',(22.8499994970858,-1.8,0.));
#855=CARTESIAN_POINT('Origin',(24.2999994970858,-1.8,0.));
#856=CARTESIAN_POINT('',(-3.25,82.3000011995435,0.));
#857=CARTESIAN_POINT('Origin',(-1.8,82.3000011995435,0.));
#858=CARTESIAN_POINT('',(22.8500003540183,82.3000011808013,0.));
#859=CARTESIAN_POINT('Origin',(24.3000003540183,82.3000011808013,0.));
#860=CARTESIAN_POINT('Origin',(26.5000003948808,-4.00000005960464,0.));
#861=CARTESIAN_POINT('',(26.5000003948808,-2.00000005960465,13.));
#862=CARTESIAN_POINT('',(26.5000003948808,-4.00000005960464,13.));
#863=CARTESIAN_POINT('',(26.5000003948808,-2.00000005960464,13.));
#864=CARTESIAN_POINT('Origin',(24.5000003948808,-2.00000005960464,13.));
#865=CARTESIAN_POINT('',(24.5000003948808,-4.00000005960464,13.));
#866=CARTESIAN_POINT('Origin',(24.5000003948808,-2.00000005960464,13.));
#867=CARTESIAN_POINT('',(24.5000003948808,-4.00000005960464,13.));
#868=CARTESIAN_POINT('Origin',(-4.00000005960464,-4.00000005960464,0.));
#869=CARTESIAN_POINT('',(-2.00000005960464,-4.00000005960464,13.));
#870=CARTESIAN_POINT('',(-4.00000005960464,-4.00000005960464,13.));
#871=CARTESIAN_POINT('',(-2.00000005960464,-4.00000005960464,13.));
#872=CARTESIAN_POINT('Origin',(-2.00000005960466,82.4999981112778,13.));
#873=CARTESIAN_POINT('',(-2.00000005960464,84.4999981112778,13.));
#874=CARTESIAN_POINT('',(-4.00000005960465,82.4999981112778,13.));
#875=CARTESIAN_POINT('Origin',(-2.00000005960466,82.4999981112778,13.));
#876=CARTESIAN_POINT('',(-2.00000005960466,84.4999981112778,13.));
#877=CARTESIAN_POINT('',(-4.00000005960464,82.4999981112778,13.));
#878=CARTESIAN_POINT('Origin',(11.2500001676381,40.2500005997717,13.));
#879=CARTESIAN_POINT('',(26.5000003948808,84.4999981112778,13.));
#880=CARTESIAN_POINT('',(-4.00000005960464,-2.00000005960465,13.));
#881=CARTESIAN_POINT('',(-4.00000005960464,84.4999981112778,13.));
#882=CARTESIAN_POINT('Origin',(-2.00000005960464,-2.00000005960464,13.));
#883=CARTESIAN_POINT('',(0.,0.,13.));
#884=CARTESIAN_POINT('',(0.,80.5000011995435,13.));
#885=CARTESIAN_POINT('',(22.4999994970858,0.,13.));
#886=CARTESIAN_POINT('',(22.4999994970858,0.,13.));
#887=CARTESIAN_POINT('',(0.,0.,13.));
#888=CARTESIAN_POINT('',(-3.25001063740646,-1.8,13.));
#889=CARTESIAN_POINT('Origin',(-1.80001063740646,-1.8,13.));
#890=CARTESIAN_POINT('',(22.8499994970858,-1.8,13.));
#891=CARTESIAN_POINT('Origin',(24.2999994970858,-1.8,13.));
#892=CARTESIAN_POINT('',(-3.25,82.3000011995435,13.));
#893=CARTESIAN_POINT('Origin',(-1.8,82.3000011995435,13.));
#894=CARTESIAN_POINT('',(22.8500003540183,82.3000011808013,13.));
#895=CARTESIAN_POINT('Origin',(24.3000003540183,82.3000011808013,13.));
#896=CARTESIAN_POINT('Origin',(-2.00000005960464,-2.00000005960464,13.));
#897=CARTESIAN_POINT('',(-4.00000005960464,-2.00000005960464,13.));
#898=CARTESIAN_POINT('Origin',(-4.00000005960464,84.4999981112778,0.));
#899=CARTESIAN_POINT('Origin',(24.3000003540183,82.3000011808013,6.5));
#900=CARTESIAN_POINT('',(22.8500003540183,82.3000011808013,6.5));
#901=CARTESIAN_POINT('Origin',(-1.8,82.3000011995435,6.5));
#902=CARTESIAN_POINT('',(-3.25,82.3000011995435,6.5));
#903=CARTESIAN_POINT('Origin',(24.2999994970858,-1.8,6.5));
#904=CARTESIAN_POINT('',(22.8499994970858,-1.8,6.5));
#905=CARTESIAN_POINT('Origin',(-1.80001063740646,-1.8,6.5));
#906=CARTESIAN_POINT('',(-3.25001063740646,-1.8,6.5));
#907=CARTESIAN_POINT('Origin',(26.5000003948808,84.4999981112778,0.));
#908=CARTESIAN_POINT('',(16.3750003948808,84.4999981112778,3.00000004470348));
#909=CARTESIAN_POINT('Origin',(0.499999988824129,0.499999988824129,3.));
#910=CARTESIAN_POINT('',(0.499999988824129,79.9999982118607,3.));
#911=CARTESIAN_POINT('',(0.499999988824129,0.499999988824129,3.));
#912=CARTESIAN_POINT('',(0.499999988824129,20.3749999944121,3.));
#913=CARTESIAN_POINT('',(0.499999988824129,79.9999982118607,4.));
#914=CARTESIAN_POINT('',(0.499999988824129,79.9999982118607,3.));
#915=CARTESIAN_POINT('',(0.499999988824129,0.499999988824129,4.));
#916=CARTESIAN_POINT('',(0.499999988824129,0.499999988824129,4.));
#917=CARTESIAN_POINT('',(0.499999988824129,0.499999988824129,3.));
#918=CARTESIAN_POINT('Origin',(21.9999995082617,0.499999988824129,3.));
#919=CARTESIAN_POINT('',(21.9999995082617,0.499999988824129,3.));
#920=CARTESIAN_POINT('',(16.6249997541308,0.499999988824129,3.));
#921=CARTESIAN_POINT('',(21.9999995082617,0.499999988824129,4.));
#922=CARTESIAN_POINT('',(21.9999995082617,0.499999988824129,4.));
#923=CARTESIAN_POINT('',(21.9999995082617,0.499999988824129,3.));
#924=CARTESIAN_POINT('Origin',(21.9999995082617,79.9999982118607,3.));
#925=CARTESIAN_POINT('',(21.9999995082617,60.1249991059303,3.));
#926=CARTESIAN_POINT('',(21.9999995082617,79.9999982118607,4.));
#927=CARTESIAN_POINT('Origin',(0.499999988824129,79.9999982118607,3.));
#928=CARTESIAN_POINT('',(0.499999988824129,79.9999982118607,4.));
#929=CARTESIAN_POINT('',(5.87499999441206,79.9999982118607,3.));
#930=CARTESIAN_POINT('Origin',(11.25,40.25,4.));
#931=CARTESIAN_POINT('',(0.,0.,4.));
#932=CARTESIAN_POINT('',(0.,20.125,4.));
#933=CARTESIAN_POINT('',(22.5,0.,4.));
#934=CARTESIAN_POINT('',(16.8749997485429,0.,4.));
#935=CARTESIAN_POINT('',(22.5000001257285,60.3750005412025,4.));
#936=CARTESIAN_POINT('Origin',(0.,0.,0.));
#937=CARTESIAN_POINT('',(0.,0.,0.));
#938=CARTESIAN_POINT('Origin',(11.25,40.25,3.));
#939=CARTESIAN_POINT('Origin',(22.5000003352761,80.5000011995435,0.));
#940=CARTESIAN_POINT('',(22.4999994970858,0.,0.));
#941=CARTESIAN_POINT('Origin',(22.4999994970858,0.,0.));
#942=UNCERTAINTY_MEASURE_WITH_UNIT(LENGTH_MEASURE(0.01),#946,
'DISTANCE_ACCURACY_VALUE',
'Maximum model space distance between geometric entities at asserted c
onnectivities');
#943=UNCERTAINTY_MEASURE_WITH_UNIT(LENGTH_MEASURE(0.01),#946,
'DISTANCE_ACCURACY_VALUE',
'Maximum model space distance between geometric entities at asserted c
onnectivities');
#944=(
GEOMETRIC_REPRESENTATION_CONTEXT(3)
GLOBAL_UNCERTAINTY_ASSIGNED_CONTEXT((#942))
GLOBAL_UNIT_ASSIGNED_CONTEXT((#946,#948,#949))
REPRESENTATION_CONTEXT('','3D')
);
#945=(
GEOMETRIC_REPRESENTATION_CONTEXT(3)
GLOBAL_UNCERTAINTY_ASSIGNED_CONTEXT((#943))
GLOBAL_UNIT_ASSIGNED_CONTEXT((#946,#948,#949))
REPRESENTATION_CONTEXT('','3D')
);
#946=(
LENGTH_UNIT()
NAMED_UNIT(*)
SI_UNIT(.MILLI.,.METRE.)
);
#947=(
LENGTH_UNIT()
NAMED_UNIT(*)
SI_UNIT($,.METRE.)
);
#948=(
NAMED_UNIT(*)
PLANE_ANGLE_UNIT()
SI_UNIT($,.RADIAN.)
);
#949=(
NAMED_UNIT(*)
SI_UNIT($,.STERADIAN.)
SOLID_ANGLE_UNIT()
);
#950=SHAPE_DEFINITION_REPRESENTATION(#951,#952);
#951=PRODUCT_DEFINITION_SHAPE('',$,#954);
#952=SHAPE_REPRESENTATION('',(#586),#944);
#953=PRODUCT_DEFINITION_CONTEXT('part definition',#958,'design');
#954=PRODUCT_DEFINITION('2026-09-19-16-12-25-873','macropad',#955,#953);
#955=PRODUCT_DEFINITION_FORMATION('',$,#960);
#956=PRODUCT_RELATED_PRODUCT_CATEGORY('macropad','macropad',(#960));
#957=APPLICATION_PROTOCOL_DEFINITION('international standard',
'automotive_design',2009,#958);
#958=APPLICATION_CONTEXT(
'Core Data for Automotive Mechanical Design Process');
#959=PRODUCT_CONTEXT('part definition',#958,'mechanical');
#960=PRODUCT('2026-09-19-16-12-25-873','macropad',$,(#959));
#961=PRESENTATION_STYLE_ASSIGNMENT((#962));
#962=SURFACE_STYLE_USAGE(.BOTH.,#963);
#963=SURFACE_SIDE_STYLE('',(#964));
#964=SURFACE_STYLE_FILL_AREA(#965);
#965=FILL_AREA_STYLE('Steel - Satin',(#966));
#966=FILL_AREA_STYLE_COLOUR('Steel - Satin',#967);
#967=COLOUR_RGB('Steel - Satin',0.627450980392157,0.627450980392157,0.627450980392157);
ENDSEC;
END-ISO-10303-21;
